<svg width="242" height="73" fill="none" xmlns="http://www.w3.org/2000/svg"><path d="M16.06 12.906V3.618l-4.941 7.725h-.903l-4.894-7.68v9.243H3.469V.134h1.568L10.69 9.11 16.298.134h1.568v12.728h-1.805v.044zM22.713.134h1.9V9.96L32.645.134h1.758v12.728h-1.9V3.037l-8.03 9.825h-1.759V.134zm21.24 7.146h-2.851v5.626h-1.9V.134h1.9v5.538h2.851L48.229.134h2.091l-4.846 6.163 5.084 6.565h-2.186l-4.419-5.583zm18.626-5.94c.998.804 1.52 1.876 1.52 3.26s-.522 2.456-1.52 3.26c-.998.804-2.376 1.161-4.134 1.161h-3.374v3.84h-1.948V.135h5.275c1.758 0 3.136.402 4.181 1.206zM61.154 6.7c.665-.491.95-1.206.95-2.099 0-.938-.333-1.608-.95-2.099-.666-.491-1.569-.759-2.804-.759h-3.279v5.716h3.28c1.235 0 2.185-.268 2.803-.76zm8.791 5.491c-1.093-.58-1.949-1.34-2.566-2.322a6.177 6.177 0 01-.95-3.35c0-1.205.332-2.321.95-3.348A6.263 6.263 0 0169.945.848C71.037.268 72.273 0 73.65 0c1.378 0 2.566.268 3.659.848 1.093.581 1.948 1.34 2.566 2.323.617.982.95 2.099.95 3.349s-.333 2.367-.95 3.35a6.263 6.263 0 01-2.566 2.321c-1.093.58-2.329.849-3.66.849a8.325 8.325 0 01-3.705-.849zm6.367-1.429a5.324 5.324 0 001.9-1.741c.476-.76.666-1.563.666-2.501s-.238-1.742-.666-2.5a4.63 4.63 0 00-1.9-1.743c-.808-.446-1.71-.625-2.661-.625-.998 0-1.9.224-2.709.625a5.323 5.323 0 00-1.9 1.742c-.475.76-.666 1.563-.666 2.5 0 .939.238 1.742.666 2.502a4.63 4.63 0 001.9 1.741c.808.447 1.711.625 2.709.625.998.045 1.9-.178 2.66-.625zm17.105-9.02h-6.985v11.164h-1.9V.134h8.885v1.608zm3.613 10.449c-1.094-.58-1.949-1.34-2.567-2.322a6.177 6.177 0 01-.95-3.35c0-1.205.333-2.321.95-3.348A6.263 6.263 0 0197.03.848C98.122.268 99.357 0 100.735 0c1.378 0 2.566.268 3.659.848 1.093.581 1.948 1.34 2.566 2.323.618.982.95 2.099.95 3.349s-.332 2.367-.95 3.35a6.265 6.265 0 01-2.566 2.321c-1.093.58-2.328.849-3.659.849a8.324 8.324 0 01-3.706-.849zm6.366-1.429a5.322 5.322 0 001.901-1.741c.475-.76.665-1.563.665-2.501s-.237-1.742-.665-2.5a4.629 4.629 0 00-1.901-1.743c-.807-.446-1.71-.625-2.661-.625-.997 0-1.9.224-2.708.625a5.324 5.324 0 00-1.9 1.742c-.476.76-.666 1.563-.666 2.5 0 .939.238 1.742.665 2.502a4.63 4.63 0 001.901 1.741c.808.447 1.71.625 2.708.625a4.97 4.97 0 002.661-.625zm17.628-9.422c.998.804 1.521 1.876 1.521 3.26s-.523 2.456-1.521 3.26c-.998.804-2.376 1.161-4.134 1.161h-3.326v3.84h-1.948V.135h5.274c1.758 0 3.136.402 4.134 1.206zm-1.378 5.36c.665-.491.951-1.206.951-2.099 0-.938-.333-1.608-.951-2.099-.665-.491-1.568-.759-2.803-.759h-3.279v5.716h3.279c1.235 0 2.186-.268 2.803-.76zm8.79 5.491c-1.093-.58-1.948-1.34-2.566-2.322a6.183 6.183 0 01-.95-3.35c0-1.205.333-2.321.95-3.348a6.265 6.265 0 012.566-2.323c1.093-.58 2.329-.848 3.707-.848 1.377 0 2.565.268 3.658.848 1.093.581 1.948 1.34 2.566 2.323.618.982.95 2.099.95 3.349s-.332 2.367-.95 3.35a6.265 6.265 0 01-2.566 2.321c-1.093.58-2.328.849-3.658.849a8.329 8.329 0 01-3.707-.849zm6.367-1.429a5.322 5.322 0 001.901-1.741c.475-.76.665-1.563.665-2.501s-.237-1.742-.665-2.5a4.629 4.629 0 00-1.901-1.743c-.807-.446-1.71-.625-2.66-.625a6.01 6.01 0 00-2.709.625 5.33 5.33 0 00-1.901 1.742c-.475.76-.665 1.563-.665 2.5 0 .939.238 1.742.665 2.502a4.635 4.635 0 001.901 1.741c.808.447 1.711.625 2.709.625a4.968 4.968 0 002.66-.625zm20.766.537v4.376h-1.806v-2.769h-11.166v2.769h-1.806v-4.377h.666c.855-.044 1.473-.67 1.805-1.92.333-1.205.57-2.947.618-5.18l.142-4.108h9.551v11.164h1.996v.045zm-10.406-2.457c-.238 1.161-.618 2.01-1.141 2.457h7.651V1.742h-5.94l-.095 2.68c-.095 1.786-.238 3.26-.475 4.42z" fill="#646865"/><path d="M74.98 27.866H63.15v22.24h11.83c6.557 0 11.832-5.002 11.832-11.12 0-6.163-5.322-11.12-11.832-11.12z" fill="url(#paint0_linear_105_334)"/><path d="M11.832 27.866C5.322 27.866 0 32.823 0 38.986c0 6.162 5.322 11.12 11.832 11.12h27.606v-22.24H11.831z" fill="url(#paint1_linear_105_334)"/><path d="M139.412 27.866v44.478h15.776V27.866h-15.776z" fill="url(#paint2_linear_105_334)"/><path d="M210.401 27.866h15.775V13.04c-8.695 0-15.775 6.609-15.775 14.826z" fill="url(#paint3_linear_105_334)"/><path d="M210.402 27.866h-15.776v44.478h15.776V27.866z" fill="url(#paint4_linear_105_334)"/><path d="M23.663 50.105L0 72.345h39.438V35.278L23.663 50.105z" fill="url(#paint5_linear_105_334)"/><path d="M107.862 50.105H92.086v22.239h39.439c0-12.28-10.596-22.239-23.663-22.239z" fill="url(#paint6_linear_105_334)"/><path d="M155.188 57.518l-15.776 14.826h47.327V27.866l-31.551 29.652z" fill="url(#paint7_linear_105_334)"/><path d="M210.402 57.518l-15.776 14.826H242V27.866l-31.598 29.652z" fill="url(#paint8_linear_105_334)"/><path d="M47.326 42.692v7.413H63.15V27.866L47.326 42.692z" fill="#656966"/><path d="M74.98 27.866H63.15L47.325 42.692v7.413h27.607c6.557 0 11.832-5.001 11.832-11.12.047-6.162-5.275-11.119-11.784-11.119z" fill="url(#paint9_linear_105_334)"/><path d="M63.15 27.866L47.325 42.692v29.652H63.15V27.866z" fill="url(#paint10_linear_105_334)"/><path d="M92.04 27.866v37.065l15.822-14.826 23.663-22.239H92.039z" fill="url(#paint11_linear_105_334)"/><defs><linearGradient id="paint0_linear_105_334" x1="63.126" y1="38.981" x2="86.798" y2="38.981" gradientUnits="userSpaceOnUse"><stop stop-color="#2C8DCD"/><stop offset=".192" stop-color="#3493CE"/><stop offset=".495" stop-color="#49A3CE"/><stop offset=".869" stop-color="#69BCCB"/><stop offset="1" stop-color="#75C6C8"/></linearGradient><linearGradient id="paint1_linear_105_334" x1="9.146" y1="52.184" x2="35.501" y2="24.142" gradientUnits="userSpaceOnUse"><stop offset=".025" stop-color="#E53322"/><stop offset=".338" stop-color="#E23122"/><stop offset=".613" stop-color="#D82A23"/><stop offset=".874" stop-color="#C72023"/><stop offset="1" stop-color="#BD1823"/></linearGradient><linearGradient id="paint2_linear_105_334" x1="131.516" y1="64.939" x2="161.125" y2="33.434" gradientUnits="userSpaceOnUse"><stop offset=".276" stop-color="#8DCFEE"/><stop offset=".586" stop-color="#67B9E6"/><stop offset=".959" stop-color="#30A3DD"/></linearGradient><linearGradient id="paint3_linear_105_334" x1="212.735" y1="30.03" x2="227.538" y2="14.278" gradientUnits="userSpaceOnUse"><stop stop-color="#A7C521"/><stop offset="1" stop-color="#82B428"/></linearGradient><linearGradient id="paint4_linear_105_334" x1="186.751" y1="64.939" x2="216.359" y2="33.435" gradientUnits="userSpaceOnUse"><stop offset=".153" stop-color="#C6D215"/><stop offset="1" stop-color="#82B428"/></linearGradient><linearGradient id="paint5_linear_105_334" x1="9.863" y1="81.624" x2="46.874" y2="42.244" gradientUnits="userSpaceOnUse"><stop offset=".276" stop-color="#8DCFEE"/><stop offset=".586" stop-color="#67B9E6"/><stop offset=".959" stop-color="#30A3DD"/></linearGradient><linearGradient id="paint6_linear_105_334" x1="96.005" y1="76.062" x2="119.108" y2="51.48" gradientUnits="userSpaceOnUse"><stop offset=".276" stop-color="#8DCFEE"/><stop offset=".586" stop-color="#67B9E6"/><stop offset=".959" stop-color="#30A3DD"/></linearGradient><linearGradient id="paint7_linear_105_334" x1="151.242" y1="83.478" x2="195.653" y2="36.224" gradientUnits="userSpaceOnUse"><stop offset=".025" stop-color="#E53322"/><stop offset=".338" stop-color="#E23122"/><stop offset=".613" stop-color="#D82A23"/><stop offset=".874" stop-color="#C72023"/><stop offset="1" stop-color="#BD1823"/></linearGradient><linearGradient id="paint8_linear_105_334" x1="206.479" y1="83.479" x2="250.89" y2="36.224" gradientUnits="userSpaceOnUse"><stop stop-color="#F3D719"/><stop offset="1" stop-color="#E85C0D"/></linearGradient><linearGradient id="paint9_linear_105_334" x1="53.502" y1="55.892" x2="79.858" y2="27.849" gradientUnits="userSpaceOnUse"><stop offset=".218" stop-color="#C6D215"/><stop offset="1" stop-color="#82B428"/></linearGradient><linearGradient id="paint10_linear_105_334" x1="43.399" y1="68.647" x2="73.007" y2="37.143" gradientUnits="userSpaceOnUse"><stop stop-color="#F3D719"/><stop offset="1" stop-color="#E85C0D"/></linearGradient><linearGradient id="paint11_linear_105_334" x1="82.198" y1="55.667" x2="119.205" y2="16.29" gradientUnits="userSpaceOnUse"><stop stop-color="#F3D719"/><stop offset="1" stop-color="#E85C0D"/></linearGradient></defs></svg>